# Wavefront OBJ file
# Exported by Misfit Model 3D 1.2.4
# Fri Mar 31 15:21:23 2023

mtllib kit.mtl

# 8 Vertices
v 2.542964 5.798437 -3.972121
v -2.293254 5.798437 -3.972121
v -2.293254 0.052703 -4.002893
v -2.293254 5.798437 3.844182
v -2.293254 0.030082 3.813409
v 2.542964 0.030082 3.813409
v 2.542964 0.052703 -4.002893
v 2.542964 5.798437 3.844182

# 36 Texture Coordinates
vt 0.320313 0.476563
vt 0.039063 0.117188
vt 0.039063 0.476563
vt 0.515625 0.875
vt 0.953125 0.515625
vt 0.515625 0.515625
vt 0.460938 0.507813
vt 0.023438 0.875
vt 0.460938 0.875
vt 0.421875 0.421875
vt 0.882813 0.125
vt 0.882813 0.421875
vt 0.320313 0.476563
vt 0.320313 0.117188
vt 0.039063 0.117188
vt 0.515625 0.875
vt 0.953125 0.875
vt 0.953125 0.515625
vt 0.460938 0.507813
vt 0.023438 0.507813
vt 0.023438 0.875
vt 0.421875 0.421875
vt 0.421875 0.125
vt 0.882813 0.125
vt 0.320313 0.476563
vt 0.039063 0.117188
vt 0.039063 0.476563
vt 0.320313 0.476563
vt 0.320313 0.117188
vt 0.039063 0.117188
vt 0.421875 0.421875
vt 0.882813 0.125
vt 0.882813 0.421875
vt 0.421875 0.421875
vt 0.421875 0.125
vt 0.882813 0.125

# 36 Vertex Normals
vn 0.576322 0.579409 -0.576314
vn -0.577825 -0.574728 -0.579489
vn -0.576322 0.579409 -0.576314
vn -0.57838 0.575294 0.578371
vn -0.577825 -0.574728 -0.579489
vn -0.576881 -0.579956 0.575203
vn 0.576881 -0.579956 0.575203
vn 0.576322 0.579409 -0.576314
vn 0.57838 0.575294 0.578371
vn 0.576322 0.579409 -0.576314
vn -0.57838 0.575294 0.578371
vn 0.57838 0.575294 0.578371
vn 0.576322 0.579409 -0.576314
vn 0.577825 -0.574728 -0.579489
vn -0.577825 -0.574728 -0.579489
vn -0.57838 0.575294 0.578371
vn -0.576322 0.579409 -0.576314
vn -0.577825 -0.574728 -0.579489
vn 0.576881 -0.579956 0.575203
vn 0.577825 -0.574728 -0.579489
vn 0.576322 0.579409 -0.576314
vn 0.576322 0.579409 -0.576314
vn -0.576322 0.579409 -0.576314
vn -0.57838 0.575294 0.578371
vn -0.57838 0.575294 0.578371
vn 0.576881 -0.579956 0.575203
vn 0.57838 0.575294 0.578371
vn -0.57838 0.575294 0.578371
vn -0.576881 -0.579956 0.575203
vn 0.576881 -0.579956 0.575203
vn 0.576881 -0.579956 0.575203
vn -0.577825 -0.574728 -0.579489
vn 0.577825 -0.574728 -0.579489
vn 0.576881 -0.579956 0.575203
vn -0.576881 -0.579956 0.575203
vn -0.577825 -0.574728 -0.579489

# Group, 12 grouped triangles

usemtl lmedkit.png
o Group
g Group

f 1/1/1 3/2/2 2/3/3
f 4/4/4 3/5/5 5/6/6
f 6/7/7 1/8/8 8/9/9
f 1/10/10 4/11/11 8/12/12
f 1/13/13 7/14/14 3/15/15
f 4/16/16 2/17/17 3/18/18
f 6/19/19 7/20/20 1/21/21
f 1/22/22 2/23/23 4/24/24
f 4/25/25 6/26/26 8/27/27
f 4/28/28 5/29/29 6/30/30
f 6/31/31 3/32/32 7/33/33
f 6/34/34 5/35/35 3/36/36
