# Wavefront OBJ file
# Exported by Misfit Model 3D 1.2.4
# Fri Mar 31 20:59:47 2023

mtllib backpack.mtl

# 8 Vertices
v 2.192851 12.072584 -4.899622
v -2.294022 12.072584 -4.899622
v -2.294022 0.531949 -4.97395
v -2.294022 12.072584 4.502967
v -2.294022 0.486514 4.428638
v 2.192851 0.486514 4.428638
v 2.192851 0.531949 -4.97395
v 2.192851 12.072584 4.502967

# 36 Texture Coordinates
vt 0.960938 0.976563
vt 0.789063 0.476563
vt 0.789063 0.976563
vt 0.414063 0.984375
vt 0.742188 0.484375
vt 0.414063 0.484375
vt 0.367188 0.492188
vt 0.039063 0.984375
vt 0.367188 0.984375
vt 0.1875 0.375
vt 0.804688 0.054688
vt 0.804688 0.375
vt 0.960938 0.976563
vt 0.960938 0.476563
vt 0.789063 0.476563
vt 0.414063 0.984375
vt 0.742188 0.984375
vt 0.742188 0.484375
vt 0.367188 0.492188
vt 0.039063 0.492188
vt 0.039063 0.984375
vt 0.1875 0.375
vt 0.1875 0.054688
vt 0.804688 0.054688
vt 0.960938 0.976563
vt 0.789063 0.476563
vt 0.789063 0.976563
vt 0.960938 0.976563
vt 0.960938 0.476563
vt 0.789063 0.476563
vt 0.1875 0.375
vt 0.804688 0.054688
vt 0.804688 0.375
vt 0.1875 0.375
vt 0.1875 0.054688
vt 0.804688 0.054688

# 36 Vertex Normals
vn 0.576115 0.579825 -0.576103
vn -0.57766 -0.573933 -0.580439
vn -0.576115 0.579825 -0.576103
vn -0.578589 0.574877 0.578577
vn -0.57766 -0.573933 -0.580439
vn -0.577046 -0.580741 0.574246
vn 0.577046 -0.580741 0.574246
vn 0.576115 0.579825 -0.576103
vn 0.578589 0.574877 0.578577
vn 0.576115 0.579825 -0.576103
vn -0.578589 0.574877 0.578577
vn 0.578589 0.574877 0.578577
vn 0.576115 0.579825 -0.576103
vn 0.57766 -0.573933 -0.580439
vn -0.57766 -0.573933 -0.580439
vn -0.578589 0.574877 0.578577
vn -0.576115 0.579825 -0.576103
vn -0.57766 -0.573933 -0.580439
vn 0.577046 -0.580741 0.574246
vn 0.57766 -0.573933 -0.580439
vn 0.576115 0.579825 -0.576103
vn 0.576115 0.579825 -0.576103
vn -0.576115 0.579825 -0.576103
vn -0.578589 0.574877 0.578577
vn -0.578589 0.574877 0.578577
vn 0.577046 -0.580741 0.574246
vn 0.578589 0.574877 0.578577
vn -0.578589 0.574877 0.578577
vn -0.577046 -0.580741 0.574246
vn 0.577046 -0.580741 0.574246
vn 0.577046 -0.580741 0.574246
vn -0.57766 -0.573933 -0.580439
vn 0.57766 -0.573933 -0.580439
vn 0.577046 -0.580741 0.574246
vn -0.577046 -0.580741 0.574246
vn -0.57766 -0.573933 -0.580439

# Group, 12 grouped triangles

usemtl lbackpack.png
o Group
g Group

f 1/1/1 3/2/2 2/3/3
f 4/4/4 3/5/5 5/6/6
f 6/7/7 1/8/8 8/9/9
f 1/10/10 4/11/11 8/12/12
f 1/13/13 7/14/14 3/15/15
f 4/16/16 2/17/17 3/18/18
f 6/19/19 7/20/20 1/21/21
f 1/22/22 2/23/23 4/24/24
f 4/25/25 6/26/26 8/27/27
f 4/28/28 5/29/29 6/30/30
f 6/31/31 3/32/32 7/33/33
f 6/34/34 5/35/35 3/36/36
