# Wavefront OBJ file
# Exported by Misfit Model 3D 1.2.4
# Thu Mar 30 18:28:29 2023

# 32 Vertices
v -9.833335 29.731638 -0.071403
v -9.129734 29.731638 -3.902122
v -7.018929 29.731638 -7.185595
v -3.735456 29.731638 -9.296399
v 0.095262 29.731638 -10.0
v 4.004158 29.731638 -9.296399
v 7.131276 29.731638 -7.185595
v 9.398436 29.731638 -3.902122
v 10.102037 29.731638 -0.071403
v 9.398436 29.731638 3.837493
v 7.131276 29.731638 6.964611
v 4.004158 29.731638 9.231771
v 0.095262 29.731638 9.935372
v -3.735456 29.731638 9.231771
v -7.018929 29.731638 6.964611
v -9.129734 29.731638 3.837493
v -9.833335 -0.2304 -0.071403
v -9.129734 -0.2304 -3.902122
v -9.129734 -0.2304 3.837493
v -7.018929 -0.2304 6.964611
v -3.735456 -0.2304 9.231771
v 0.095262 -0.2304 9.935372
v 4.004158 -0.2304 9.231771
v 7.131276 -0.2304 6.964611
v 9.398436 -0.2304 3.837493
v 10.102037 -0.2304 -0.071403
v 9.398436 -0.2304 -3.902122
v 7.131276 -0.2304 -7.185595
v 4.004158 -0.2304 -9.296399
v 0.095262 -0.2304 -10.0
v -3.735456 -0.2304 -9.296399
v -7.018929 -0.2304 -7.185595

# 180 Texture Coordinates
vt 0.363281 0.667969
vt 0.3125 0.644531
vt 0.257813 0.644531
vt 0.402344 0.707031
vt 0.363281 0.667969
vt 0.257813 0.644531
vt 0.425781 0.757813
vt 0.402344 0.707031
vt 0.257813 0.644531
vt 0.425781 0.816406
vt 0.425781 0.757813
vt 0.257813 0.644531
vt 0.402344 0.867188
vt 0.425781 0.816406
vt 0.257813 0.644531
vt 0.363281 0.90625
vt 0.402344 0.867188
vt 0.257813 0.644531
vt 0.3125 0.929688
vt 0.363281 0.90625
vt 0.257813 0.644531
vt 0.257813 0.929688
vt 0.3125 0.929688
vt 0.257813 0.644531
vt 0.203125 0.90625
vt 0.257813 0.929688
vt 0.257813 0.644531
vt 0.164063 0.867188
vt 0.203125 0.90625
vt 0.257813 0.644531
vt 0.144531 0.816406
vt 0.164063 0.867188
vt 0.257813 0.644531
vt 0.144531 0.757813
vt 0.144531 0.816406
vt 0.257813 0.644531
vt 0.164063 0.707031
vt 0.144531 0.757813
vt 0.257813 0.644531
vt 0.203125 0.667969
vt 0.164063 0.707031
vt 0.257813 0.644531
vt 0.273438 0.101563
vt 0.214844 0.101563
vt 0.214844 0.535156
vt 0.273438 0.535156
vt 0.273438 0.101563
vt 0.214844 0.535156
vt 0.214844 0.101563
vt 0.160156 0.101563
vt 0.160156 0.535156
vt 0.214844 0.535156
vt 0.214844 0.101563
vt 0.160156 0.535156
vt 0.160156 0.101563
vt 0.101563 0.101563
vt 0.101563 0.535156
vt 0.160156 0.535156
vt 0.160156 0.101563
vt 0.101563 0.535156
vt 0.101563 0.101563
vt 0.046875 0.101563
vt 0.046875 0.535156
vt 0.101563 0.535156
vt 0.101563 0.101563
vt 0.046875 0.535156
vt 0.945313 0.101563
vt 0.890625 0.101563
vt 0.890625 0.535156
vt 0.945313 0.535156
vt 0.945313 0.101563
vt 0.890625 0.535156
vt 0.890625 0.101563
vt 0.835938 0.101563
vt 0.835938 0.535156
vt 0.890625 0.535156
vt 0.890625 0.101563
vt 0.835938 0.535156
vt 0.835938 0.101563
vt 0.777344 0.101563
vt 0.777344 0.535156
vt 0.835938 0.535156
vt 0.835938 0.101563
vt 0.777344 0.535156
vt 0.777344 0.101563
vt 0.722656 0.101563
vt 0.722656 0.535156
vt 0.777344 0.535156
vt 0.777344 0.101563
vt 0.722656 0.535156
vt 0.722656 0.101563
vt 0.664063 0.101563
vt 0.664063 0.535156
vt 0.722656 0.535156
vt 0.722656 0.101563
vt 0.664063 0.535156
vt 0.664063 0.101563
vt 0.609375 0.101563
vt 0.609375 0.535156
vt 0.664063 0.535156
vt 0.664063 0.101563
vt 0.609375 0.535156
vt 0.609375 0.101563
vt 0.554688 0.101563
vt 0.554688 0.535156
vt 0.609375 0.535156
vt 0.609375 0.101563
vt 0.554688 0.535156
vt 0.554688 0.101563
vt 0.496094 0.101563
vt 0.496094 0.535156
vt 0.554688 0.535156
vt 0.554688 0.101563
vt 0.496094 0.535156
vt 0.496094 0.101563
vt 0.441406 0.101563
vt 0.441406 0.535156
vt 0.496094 0.535156
vt 0.496094 0.101563
vt 0.441406 0.535156
vt 0.441406 0.101563
vt 0.382813 0.101563
vt 0.382813 0.535156
vt 0.441406 0.535156
vt 0.441406 0.101563
vt 0.382813 0.535156
vt 0.382813 0.101563
vt 0.328125 0.101563
vt 0.328125 0.535156
vt 0.382813 0.535156
vt 0.382813 0.101563
vt 0.328125 0.535156
vt 0.328125 0.101563
vt 0.273438 0.101563
vt 0.273438 0.535156
vt 0.328125 0.535156
vt 0.328125 0.101563
vt 0.273438 0.535156
vt 0.820313 0.707031
vt 0.777344 0.664063
vt 0.726563 0.644531
vt 0.839844 0.757813
vt 0.820313 0.707031
vt 0.726563 0.644531
vt 0.839844 0.8125
vt 0.839844 0.757813
vt 0.726563 0.644531
vt 0.820313 0.867188
vt 0.839844 0.8125
vt 0.726563 0.644531
vt 0.777344 0.90625
vt 0.820313 0.867188
vt 0.726563 0.644531
vt 0.726563 0.925781
vt 0.777344 0.90625
vt 0.726563 0.644531
vt 0.671875 0.925781
vt 0.726563 0.925781
vt 0.726563 0.644531
vt 0.617188 0.90625
vt 0.671875 0.925781
vt 0.726563 0.644531
vt 0.578125 0.867188
vt 0.617188 0.90625
vt 0.726563 0.644531
vt 0.558594 0.8125
vt 0.578125 0.867188
vt 0.726563 0.644531
vt 0.558594 0.757813
vt 0.558594 0.8125
vt 0.726563 0.644531
vt 0.578125 0.707031
vt 0.558594 0.757813
vt 0.726563 0.644531
vt 0.617188 0.664063
vt 0.578125 0.707031
vt 0.726563 0.644531
vt 0.671875 0.644531
vt 0.617188 0.664063
vt 0.726563 0.644531

# 180 Vertex Normals
vn -0.540822 0.562566 -0.625325
vn -0.855965 0.321079 -0.405255
vn -0.206255 0.978414 -0.01287
vn -0.253123 0.561211 -0.788017
vn -0.540822 0.562566 -0.625325
vn -0.206255 0.978414 -0.01287
vn 0.048645 0.560245 -0.826897
vn -0.253123 0.561211 -0.788017
vn -0.206255 0.978414 -0.01287
vn 0.364277 0.562113 -0.742517
vn 0.048645 0.560245 -0.826897
vn -0.206255 0.978414 -0.01287
vn 0.618197 0.560655 -0.550908
vn 0.364277 0.562113 -0.742517
vn -0.206255 0.978414 -0.01287
vn 0.784498 0.562366 -0.261358
vn 0.618197 0.560655 -0.550908
vn -0.206255 0.978414 -0.01287
vn 0.826897 0.560245 0.048645
vn 0.784498 0.562366 -0.261358
vn -0.206255 0.978414 -0.01287
vn 0.733334 0.563366 0.380578
vn 0.826897 0.560245 0.048645
vn -0.206255 0.978414 -0.01287
vn 0.554381 0.558979 0.616607
vn 0.733334 0.563366 0.380578
vn -0.206255 0.978414 -0.01287
vn 0.265141 0.563366 0.782508
vn 0.554381 0.558979 0.616607
vn -0.206255 0.978414 -0.01287
vn -0.051584 0.560245 0.826719
vn 0.265141 0.563366 0.782508
vn -0.206255 0.978414 -0.01287
vn -0.370327 0.562366 0.739326
vn -0.051584 0.560245 0.826719
vn -0.206255 0.978414 -0.01287
vn -0.623977 0.560655 0.544352
vn -0.370327 0.562366 0.739326
vn -0.206255 0.978414 -0.01287
vn -0.900017 0.321755 0.294013
vn -0.623977 0.560655 0.544352
vn -0.206255 0.978414 -0.01287
vn -0.788017 -0.561211 -0.253123
vn -0.945662 -0.320356 0.055631
vn -0.206255 0.978414 -0.01287
vn -0.855965 0.321079 -0.405255
vn -0.788017 -0.561211 -0.253123
vn -0.206255 0.978414 -0.01287
vn -0.945662 -0.320356 0.055631
vn -0.18467 -0.978616 0.090599
vn -0.900017 0.321755 0.294013
vn -0.206255 0.978414 -0.01287
vn -0.945662 -0.320356 0.055631
vn -0.900017 0.321755 0.294013
vn -0.18467 -0.978616 0.090599
vn -0.630175 -0.320662 0.707146
vn -0.623977 0.560655 0.544352
vn -0.900017 0.321755 0.294013
vn -0.18467 -0.978616 0.090599
vn -0.623977 0.560655 0.544352
vn -0.630175 -0.320662 0.707146
vn -0.261358 -0.562366 0.784498
vn -0.370327 0.562366 0.739326
vn -0.623977 0.560655 0.544352
vn -0.630175 -0.320662 0.707146
vn -0.370327 0.562366 0.739326
vn -0.261358 -0.562366 0.784498
vn 0.048644 -0.560245 0.826897
vn -0.051584 0.560245 0.826719
vn -0.370327 0.562366 0.739326
vn -0.261358 -0.562366 0.784498
vn -0.051584 0.560245 0.826719
vn 0.048644 -0.560245 0.826897
vn 0.380578 -0.563366 0.733334
vn 0.265141 0.563366 0.782508
vn -0.051584 0.560245 0.826719
vn 0.048644 -0.560245 0.826897
vn 0.265141 0.563366 0.782508
vn 0.380578 -0.563366 0.733334
vn 0.616607 -0.558979 0.554381
vn 0.554381 0.558979 0.616607
vn 0.265141 0.563366 0.782508
vn 0.380578 -0.563366 0.733334
vn 0.554381 0.558979 0.616607
vn 0.616607 -0.558979 0.554381
vn 0.782508 -0.563366 0.265141
vn 0.733334 0.563366 0.380578
vn 0.554381 0.558979 0.616607
vn 0.616607 -0.558979 0.554381
vn 0.733334 0.563366 0.380578
vn 0.782508 -0.563366 0.265141
vn 0.826719 -0.560245 -0.051585
vn 0.826897 0.560245 0.048645
vn 0.733334 0.563366 0.380578
vn 0.782508 -0.563366 0.265141
vn 0.826897 0.560245 0.048645
vn 0.826719 -0.560245 -0.051585
vn 0.739326 -0.562366 -0.370327
vn 0.784498 0.562366 -0.261358
vn 0.826897 0.560245 0.048645
vn 0.826719 -0.560245 -0.051585
vn 0.784498 0.562366 -0.261358
vn 0.739326 -0.562366 -0.370327
vn 0.544352 -0.560655 -0.623977
vn 0.618197 0.560655 -0.550908
vn 0.784498 0.562366 -0.261358
vn 0.739326 -0.562366 -0.370327
vn 0.618197 0.560655 -0.550908
vn 0.544352 -0.560655 -0.623977
vn 0.256823 -0.562113 -0.786175
vn 0.364277 0.562113 -0.742517
vn 0.618197 0.560655 -0.550908
vn 0.544352 -0.560655 -0.623977
vn 0.364277 0.562113 -0.742517
vn 0.256823 -0.562113 -0.786175
vn -0.051585 -0.560245 -0.826719
vn 0.048645 0.560245 -0.826897
vn 0.364277 0.562113 -0.742517
vn 0.256823 -0.562113 -0.786175
vn 0.048645 0.560245 -0.826897
vn -0.051585 -0.560245 -0.826719
vn -0.354171 -0.561211 -0.748067
vn -0.253123 0.561211 -0.788017
vn 0.048645 0.560245 -0.826897
vn -0.051585 -0.560245 -0.826719
vn -0.253123 0.561211 -0.788017
vn -0.354171 -0.561211 -0.748067
vn -0.625325 -0.562566 -0.540821
vn -0.540822 0.562566 -0.625325
vn -0.253123 0.561211 -0.788017
vn -0.354171 -0.561211 -0.748067
vn -0.540822 0.562566 -0.625325
vn -0.625325 -0.562566 -0.540821
vn -0.788017 -0.561211 -0.253123
vn -0.855965 0.321079 -0.405255
vn -0.540822 0.562566 -0.625325
vn -0.625325 -0.562566 -0.540821
vn -0.855965 0.321079 -0.405255
vn -0.261358 -0.562366 0.784498
vn -0.630175 -0.320662 0.707146
vn -0.18467 -0.978616 0.090599
vn 0.048644 -0.560245 0.826897
vn -0.261358 -0.562366 0.784498
vn -0.18467 -0.978616 0.090599
vn 0.380578 -0.563366 0.733334
vn 0.048644 -0.560245 0.826897
vn -0.18467 -0.978616 0.090599
vn 0.616607 -0.558979 0.554381
vn 0.380578 -0.563366 0.733334
vn -0.18467 -0.978616 0.090599
vn 0.782508 -0.563366 0.265141
vn 0.616607 -0.558979 0.554381
vn -0.18467 -0.978616 0.090599
vn 0.826719 -0.560245 -0.051585
vn 0.782508 -0.563366 0.265141
vn -0.18467 -0.978616 0.090599
vn 0.739326 -0.562366 -0.370327
vn 0.826719 -0.560245 -0.051585
vn -0.18467 -0.978616 0.090599
vn 0.544352 -0.560655 -0.623977
vn 0.739326 -0.562366 -0.370327
vn -0.18467 -0.978616 0.090599
vn 0.256823 -0.562113 -0.786175
vn 0.544352 -0.560655 -0.623977
vn -0.18467 -0.978616 0.090599
vn -0.051585 -0.560245 -0.826719
vn 0.256823 -0.562113 -0.786175
vn -0.18467 -0.978616 0.090599
vn -0.354171 -0.561211 -0.748067
vn -0.051585 -0.560245 -0.826719
vn -0.18467 -0.978616 0.090599
vn -0.625325 -0.562566 -0.540821
vn -0.354171 -0.561211 -0.748067
vn -0.18467 -0.978616 0.090599
vn -0.788017 -0.561211 -0.253123
vn -0.625325 -0.562566 -0.540821
vn -0.18467 -0.978616 0.090599
vn -0.945662 -0.320356 0.055631
vn -0.788017 -0.561211 -0.253123
vn -0.18467 -0.978616 0.090599

# Group, 60 grouped triangles

o Group
g Group

f 3/1/1 2/2/2 1/3/3
f 4/4/4 3/5/5 1/6/6
f 5/7/7 4/8/8 1/9/9
f 6/10/10 5/11/11 1/12/12
f 7/13/13 6/14/14 1/15/15
f 8/16/16 7/17/17 1/18/18
f 9/19/19 8/20/20 1/21/21
f 10/22/22 9/23/23 1/24/24
f 11/25/25 10/26/26 1/27/27
f 12/28/28 11/29/29 1/30/30
f 13/31/31 12/32/32 1/33/33
f 14/34/34 13/35/35 1/36/36
f 15/37/37 14/38/38 1/39/39
f 16/40/40 15/41/41 1/42/42
f 18/43/43 17/44/44 1/45/45
f 2/46/46 18/47/47 1/48/48
f 17/49/49 19/50/50 16/51/51
f 1/52/52 17/53/53 16/54/54
f 19/55/55 20/56/56 15/57/57
f 16/58/58 19/59/59 15/60/60
f 20/61/61 21/62/62 14/63/63
f 15/64/64 20/65/65 14/66/66
f 21/67/67 22/68/68 13/69/69
f 14/70/70 21/71/71 13/72/72
f 22/73/73 23/74/74 12/75/75
f 13/76/76 22/77/77 12/78/78
f 23/79/79 24/80/80 11/81/81
f 12/82/82 23/83/83 11/84/84
f 24/85/85 25/86/86 10/87/87
f 11/88/88 24/89/89 10/90/90
f 25/91/91 26/92/92 9/93/93
f 10/94/94 25/95/95 9/96/96
f 26/97/97 27/98/98 8/99/99
f 9/100/100 26/101/101 8/102/102
f 27/103/103 28/104/104 7/105/105
f 8/106/106 27/107/107 7/108/108
f 28/109/109 29/110/110 6/111/111
f 7/112/112 28/113/113 6/114/114
f 29/115/115 30/116/116 5/117/117
f 6/118/118 29/119/119 5/120/120
f 30/121/121 31/122/122 4/123/123
f 5/124/124 30/125/125 4/126/126
f 31/127/127 32/128/128 3/129/129
f 4/130/130 31/131/131 3/132/132
f 32/133/133 18/134/134 2/135/135
f 3/136/136 32/137/137 2/138/138
f 21/139/139 20/140/140 19/141/141
f 22/142/142 21/143/143 19/144/144
f 23/145/145 22/146/146 19/147/147
f 24/148/148 23/149/149 19/150/150
f 25/151/151 24/152/152 19/153/153
f 26/154/154 25/155/155 19/156/156
f 27/157/157 26/158/158 19/159/159
f 28/160/160 27/161/161 19/162/162
f 29/163/163 28/164/164 19/165/165
f 30/166/166 29/167/167 19/168/168
f 31/169/169 30/170/170 19/171/171
f 32/172/172 31/173/173 19/174/174
f 18/175/175 32/176/176 19/177/177
f 17/178/178 18/179/179 19/180/180
