# Wavefront OBJ file
# Exported by Misfit Model 3D 1.2.4
# Fri Mar 31 15:19:27 2023

mtllib ammo.mtl

# 9 Vertices
v 12.969225 18.250822 -16.332255
v -11.599758 18.178803 -16.332255
v -11.50303 0.029937 -16.460051
v -11.599758 18.178803 16.127947
v -11.50303 -0.042082 16.000151
v 12.872497 -0.042082 16.000151
v 12.872497 0.029937 -16.460051
v 12.872497 18.322842 16.127947
v 13.065953 18.250822 16.000151

# 36 Texture Coordinates
vt 0.976563 0.984375
vt 0.585938 0.609375
vt 0.585938 0.984375
vt 0.023438 0.984375
vt 0.5625 0.617188
vt 0.023438 0.617188
vt 0.5625 0.21875
vt 0.023438 0.585938
vt 0.5625 0.585938
vt 0.976563 0.984375
vt 0.976563 0.609375
vt 0.585938 0.609375
vt 0.023438 0.984375
vt 0.5625 0.984375
vt 0.5625 0.617188
vt 0.5625 0.21875
vt 0.023438 0.21875
vt 0.023438 0.585938
vt 0.976563 0.984375
vt 0.585938 0.609375
vt 0.585938 0.984375
vt 0.976563 0.984375
vt 0.976563 0.609375
vt 0.585938 0.609375
vt 0.171875 0.179688
vt 0.398438 0.03125
vt 0.398438 0.179688
vt 0.171875 0.179688
vt 0.171875 0.03125
vt 0.398438 0.03125
vt 0.617188 0.03125
vt 0.914063 0.578125
vt 0.914063 0.03125
vt 0.617188 0.03125
vt 0.617188 0.578125
vt 0.914063 0.578125

# 36 Vertex Normals
vn 0.665915 0.336361 -0.665897
vn -0.577254 -0.576269 -0.578526
vn -0.410008 0.815935 -0.407607
vn -0.66901 0.325807 0.668038
vn -0.577254 -0.576269 -0.578526
vn -0.575403 -0.5825 0.574113
vn 0.575643 -0.58119 0.575199
vn 0.665915 0.336361 -0.665897
vn 0.706067 -0.004928 0.708128
vn 0.665915 0.336361 -0.665897
vn 0.577248 -0.576271 -0.57853
vn -0.577254 -0.576269 -0.578526
vn -0.66901 0.325807 0.668038
vn -0.410008 0.815935 -0.407607
vn -0.577254 -0.576269 -0.578526
vn 0.575643 -0.58119 0.575199
vn 0.577248 -0.576271 -0.57853
vn 0.665915 0.336361 -0.665897
vn -0.66901 0.325807 0.668038
vn 0.575643 -0.58119 0.575199
vn 0.706067 -0.004928 0.708128
vn -0.66901 0.325807 0.668038
vn -0.575403 -0.5825 0.574113
vn 0.575643 -0.58119 0.575199
vn 0.575643 -0.58119 0.575199
vn -0.577254 -0.576269 -0.578526
vn 0.577248 -0.576271 -0.57853
vn 0.575643 -0.58119 0.575199
vn -0.575403 -0.5825 0.574113
vn -0.577254 -0.576269 -0.578526
vn -0.002926 0.999996 0.000004
vn -0.410008 0.815935 -0.407607
vn -0.66901 0.325807 0.668038
vn -0.002926 0.999996 0.000004
vn 0.665915 0.336361 -0.665897
vn -0.410008 0.815935 -0.407607

# Group, 12 grouped triangles

usemtl lammobox.png
o Group
g Group

f 1/1/1 3/2/2 2/3/3
f 4/4/4 3/5/5 5/6/6
f 6/7/7 1/8/8 8/9/9
f 1/10/10 7/11/11 3/12/12
f 4/13/13 2/14/14 3/15/15
f 6/16/16 7/17/17 1/18/18
f 4/19/19 6/20/20 8/21/21
f 4/22/22 5/23/23 6/24/24
f 6/25/25 3/26/26 7/27/27
f 6/28/28 5/29/29 3/30/30
f 9/31/31 2/32/32 4/33/33
f 9/34/34 1/35/35 2/36/36
